# xmcd CD database file
#
# Track frame offsets:
#	150
#	14490
#	29174
#	47110
#	68031
#	83870
#	100226
#	119955
#	135908
#	150335
#	164021
#	188026
#
# Disc length: 2792 seconds
#
# Revision: 0
# Processed by: cddbd v1.5.2PL0 Copyright (c) Steve Scherf et al.
# Submitted via: cdripper 1,0,39,0213
#
DISCID=a30ae60c
DTITLE=Loco Joe and  the Fireworks - Get out of my way
DYEAR=1900
DGENRE=Blues
TTITLE0=Turning Back
TTITLE1=I just can't handle This
TTITLE2=Night time Cruiser
TTITLE3=Always on the Run
TTITLE4=Get out of my Way
TTITLE5=You push me out the Door
TTITLE6=Lone Star Fool
TTITLE7=Three Days on the Run
TTITLE8=Swamp Music
TTITLE9=It's too much
TTITLE10=Politician
TTITLE11=Meantown Blues
EXTD=
EXTT0=
EXTT1=
EXTT2=
EXTT3=
EXTT4=
EXTT5=
EXTT6=
EXTT7=
EXTT8=
EXTT9=
EXTT10=
EXTT11=
PLAYORDER=
